<svg width="200" height="52" viewBox="0 0 200 52" fill="none" xmlns="http://www.w3.org/2000/svg">
<g id="logo">
<path id="Vector" d="M67.2675 11.5044V39.4399H63.4397V11.5044H67.2675ZM47.9307 36.1259C49.8182 36.1259 51.2801 35.6921 52.3163 34.8236C53.3532 33.9559 53.8709 32.8111 53.8709 31.3908C53.8709 29.8122 53.3457 28.5891 52.2959 27.7214C51.2461 26.8536 49.7639 26.419 47.85 26.419H42.1483V36.1252H47.9292L47.9307 36.1259ZM47.4915 23.105C49.0862 23.105 50.342 22.7436 51.2589 22.02C52.1759 21.2964 52.6347 20.2644 52.6347 18.9225C52.6347 17.6598 52.2363 16.6599 51.4386 15.9236C50.6408 15.1873 49.5911 14.8192 48.2885 14.8192H42.1483V23.105H47.4908H47.4915ZM48.2892 11.5044C50.8673 11.5044 52.914 12.1354 54.4294 13.3981C55.9448 14.6609 56.7018 16.3575 56.7018 18.4879C56.7018 21.513 55.0807 23.565 51.8378 24.6433V24.7224H51.8778C53.7117 24.933 55.1803 25.6895 56.2837 26.991C57.3871 28.2934 57.938 29.8518 57.938 31.6664C57.938 34.0074 57.0278 35.8885 55.2067 37.3088C53.3857 38.729 51.0401 39.4392 48.1692 39.4392H38.3212V11.5044H48.2892ZM15.2759 29.2208H25.9616L20.6984 16.397H20.6184L15.2759 29.2208ZM22.5723 11.5044L34.6534 39.4399H30.1879L27.357 32.5348H13.9204L11.1296 39.4399H6.66406L19.1037 11.5044H22.5723Z" fill="#F3F3F3"/>
<path id="Vector_2" d="M182.021 20.5039C183.41 20.5039 184.444 20.2515 185.12 19.7474C185.796 19.2434 186.134 18.4504 186.134 17.3683C186.134 15.2782 184.763 14.2328 182.021 14.2328H178.408V20.5039H182.021ZM182.8 11.9223C184.727 11.9223 186.237 12.3988 187.33 13.3524C188.423 14.3059 188.97 15.6441 188.97 17.3683C188.97 18.6699 188.521 19.8072 187.622 20.7787C186.724 21.7502 185.57 22.3282 184.162 22.5111H184.134L189.72 31.3951H186.385L181.383 22.8136H178.409V31.3951H175.741V11.9223H182.801H182.8ZM171.46 11.9223V14.3978H161.427V20.2015H170.766V22.6769H161.427V28.9204H171.96V31.3958H158.758V11.9223H171.46ZM142.834 15.4977L138.081 31.3951H135.275L129.521 11.9216H132.301L136.637 27.4889H136.693L141.334 11.9216H144.391L149.033 27.4889H149.088L153.424 11.9216H156.204L150.479 31.3951H147.672L142.892 15.4977H142.836H142.834ZM110.51 21.6591C110.51 23.8597 111.205 25.7019 112.594 27.1872C113.984 28.6725 115.763 29.4147 117.931 29.4147C120.099 29.4147 121.831 28.6814 123.239 27.2141C124.648 25.7475 125.352 23.8948 125.352 21.6583C125.352 19.4219 124.657 17.5923 123.267 16.116C121.878 14.6397 120.09 13.902 117.903 13.902C115.716 13.902 114.031 14.6353 112.622 16.1026C111.214 17.5692 110.51 19.4219 110.51 21.6583V21.6591ZM117.931 11.4273C120.858 11.4273 123.3 12.3898 125.254 14.3149C127.209 16.24 128.186 18.6878 128.186 21.6583C128.186 23.5469 127.751 25.2748 126.88 26.843C126.009 28.4104 124.782 29.644 123.197 30.5423C121.613 31.4406 119.858 31.8902 117.93 31.8902C116.003 31.8902 114.28 31.4459 112.705 30.5565C111.13 29.6671 109.899 28.4387 109.009 26.8706C108.12 25.3032 107.675 23.5655 107.675 21.6583C107.675 18.761 108.634 16.3318 110.551 14.3694C112.469 12.4077 114.929 11.4265 117.93 11.4265L117.931 11.4273ZM97.1421 11.9223V28.9204H106.175V31.3958H94.4742V11.9223H97.1421ZM90.8887 11.9223V14.3978H81.1886V20.5039H90.2215V22.9793H81.1886V31.3958H78.5208V11.9223H90.8887Z" fill="#F3F3F3"/>
<path id="Vector_3" d="M188.809 36.3365C189.206 36.3365 189.5 36.4522 189.69 36.6829L189.354 36.9861C189.302 36.9062 189.228 36.842 189.133 36.7935C189.038 36.7449 188.929 36.721 188.805 36.721C188.626 36.721 188.483 36.7643 188.375 36.8517C188.267 36.9383 188.213 37.0503 188.213 37.187C188.213 37.4147 188.365 37.5746 188.671 37.6657L189.055 37.7896C189.271 37.8583 189.436 37.9531 189.549 38.0764C189.663 38.1988 189.72 38.3668 189.72 38.5812C189.72 38.8604 189.619 39.0867 189.419 39.2584C189.219 39.4309 188.965 39.5168 188.657 39.5168C188.216 39.5168 187.891 39.3772 187.68 39.0979L188.022 38.8074C188.088 38.9097 188.179 38.9896 188.294 39.0471C188.41 39.1039 188.535 39.1322 188.67 39.1322C188.84 39.1322 188.984 39.0837 189.102 38.9866C189.219 38.8896 189.279 38.7701 189.279 38.6275C189.279 38.5222 189.243 38.4333 189.171 38.3624C189.099 38.2914 188.969 38.2272 188.782 38.1697L188.51 38.0801C188.236 37.989 188.045 37.8725 187.936 37.7314C187.826 37.5902 187.771 37.4088 187.771 37.1862C187.771 36.9495 187.868 36.7487 188.061 36.5836C188.254 36.4186 188.503 36.3357 188.808 36.3357L188.809 36.3365ZM183.04 36.4134L184.012 38.7051H184.029L184.993 36.4134H185.611V39.4399H185.196V36.9518H185.188L184.155 39.4399H183.879L182.847 36.9518H182.838V39.4399H182.423V36.4134H183.041H183.04ZM177.543 37.927C177.543 38.269 177.651 38.5558 177.866 38.7865C178.082 39.0173 178.359 39.133 178.696 39.133C179.032 39.133 179.302 39.0187 179.521 38.791C179.74 38.5632 179.849 38.275 179.849 37.9278C179.849 37.5805 179.741 37.296 179.525 37.066C179.309 36.8368 179.032 36.7218 178.691 36.7218C178.351 36.7218 178.089 36.836 177.87 37.0638C177.651 37.2915 177.542 37.5798 177.542 37.927H177.543ZM178.696 36.3365C179.151 36.3365 179.531 36.4858 179.834 36.7852C180.138 37.0847 180.29 37.4648 180.29 37.927C180.29 38.2205 180.222 38.4893 180.087 38.7327C179.952 38.9762 179.761 39.1681 179.515 39.3077C179.269 39.4474 178.995 39.5176 178.696 39.5176C178.396 39.5176 178.128 39.4481 177.884 39.31C177.639 39.1718 177.448 38.9807 177.309 38.7372C177.171 38.4938 177.102 38.2235 177.102 37.927C177.102 37.4767 177.251 37.0989 177.549 36.7942C177.847 36.4895 178.229 36.3365 178.696 36.3365ZM172.383 37.927C172.383 38.269 172.491 38.5558 172.707 38.7865C172.922 39.0173 173.199 39.133 173.536 39.133C173.873 39.133 174.142 39.0187 174.361 38.791C174.58 38.5632 174.689 38.275 174.689 37.9278C174.689 37.5805 174.581 37.296 174.365 37.066C174.15 36.8368 173.872 36.7218 173.531 36.7218C173.191 36.7218 172.929 36.836 172.71 37.0638C172.491 37.2915 172.382 37.5798 172.382 37.927H172.383ZM173.536 36.3365C173.991 36.3365 174.371 36.4858 174.674 36.7852C174.978 37.0847 175.13 37.4648 175.13 37.927C175.13 38.2205 175.062 38.4893 174.927 38.7327C174.792 38.9762 174.601 39.1681 174.355 39.3077C174.109 39.4474 173.836 39.5176 173.536 39.5176C173.236 39.5176 172.968 39.4481 172.724 39.31C172.479 39.1718 172.288 38.9807 172.15 38.7372C172.012 38.4938 171.942 38.2235 171.942 37.927C171.942 37.4767 172.091 37.0989 172.389 36.7942C172.687 36.4895 173.07 36.3365 173.536 36.3365ZM168.739 36.4134V39.0553H170.143V39.4399H168.324V36.4134H168.739ZM165.079 39.0815C165.283 39.0815 165.442 39.0344 165.554 38.9403C165.667 38.8462 165.723 38.7223 165.723 38.5685C165.723 38.3975 165.666 38.2653 165.552 38.1712C165.438 38.0771 165.278 38.0301 165.071 38.0301H164.452V39.0815H165.079ZM165.031 37.6701C165.204 37.6701 165.34 37.6313 165.44 37.5529C165.539 37.4745 165.588 37.3625 165.588 37.2176C165.588 37.081 165.545 36.9727 165.458 36.8928C165.372 36.8129 165.259 36.7733 165.117 36.7733H164.452V37.6709H165.031L165.031 37.6701ZM165.117 36.4134C165.397 36.4134 165.618 36.4821 165.783 36.6187C165.948 36.7554 166.029 36.9391 166.029 37.1706C166.029 37.4984 165.853 37.7209 165.502 37.8374V37.8456H165.507C165.705 37.8688 165.865 37.9502 165.985 38.0913C166.104 38.2324 166.164 38.4012 166.164 38.5976C166.164 38.8515 166.065 39.0553 165.868 39.2092C165.671 39.363 165.417 39.4399 165.106 39.4399H164.039V36.4134H165.119H165.117ZM159.04 36.4134V36.7979H157.481V37.7H158.932V38.0846H157.481V39.0553H159.118V39.4399H157.066V36.4134H159.04ZM155.06 36.4134V36.7979H154.075V39.4399H153.66V36.7979H152.675V36.4134H155.06ZM150.669 36.4134V39.4399H150.254V36.4134H150.669ZM147.025 37.747C147.241 37.747 147.402 37.7082 147.507 37.6298C147.611 37.5514 147.664 37.4282 147.664 37.2602C147.664 36.9353 147.451 36.7726 147.025 36.7726H146.464V37.747H147.025ZM147.146 36.4134C147.445 36.4134 147.68 36.4873 147.85 36.6359C148.02 36.7838 148.105 36.9921 148.105 37.2602C148.105 37.4625 148.035 37.6395 147.895 37.7904C147.756 37.9412 147.576 38.0316 147.357 38.0599H147.353L148.221 39.4407H147.703L146.925 38.107H146.464V39.4407H146.049V36.4141H147.146V36.4134ZM141.139 37.927C141.139 38.269 141.247 38.5558 141.463 38.7865C141.679 39.0173 141.956 39.133 142.292 39.133C142.629 39.133 142.898 39.0187 143.117 38.791C143.336 38.5632 143.446 38.275 143.446 37.9278C143.446 37.5805 143.338 37.296 143.122 37.066C142.906 36.8368 142.628 36.7218 142.288 36.7218C141.948 36.7218 141.686 36.836 141.467 37.0638C141.248 37.2915 141.138 37.5798 141.138 37.927H141.139ZM142.293 36.3365C142.748 36.3365 143.128 36.4858 143.431 36.7852C143.735 37.0847 143.887 37.4648 143.887 37.927C143.887 38.2205 143.819 38.4893 143.684 38.7327C143.549 38.9762 143.358 39.1681 143.112 39.3077C142.866 39.4474 142.593 39.5176 142.293 39.5176C141.994 39.5176 141.726 39.4481 141.481 39.31C141.237 39.1718 141.045 38.9807 140.907 38.7372C140.769 38.4938 140.699 38.2235 140.699 37.927C140.699 37.4767 140.848 37.0989 141.146 36.7942C141.444 36.4895 141.827 36.3365 142.293 36.3365ZM136.662 36.4134L137.561 38.8761H137.57L138.502 36.4134H138.956L137.751 39.4399H137.362L136.182 36.4134H136.662H136.662ZM132.936 38.3332H134.094L133.524 36.9436H133.515L132.936 38.3332ZM133.727 36.4134L135.036 39.4399H134.552L134.246 38.6917H132.79L132.487 39.4399H132.004L133.352 36.4134H133.727ZM130.507 36.4134V36.7979H128.999V37.747H130.403V38.1316H128.999V39.4399H128.584V36.4134H130.506H130.507ZM122.59 37.747C122.805 37.747 122.966 37.7082 123.071 37.6298C123.176 37.5514 123.229 37.4282 123.229 37.2602C123.229 36.9353 123.016 36.7726 122.59 36.7726H122.028V37.747H122.59ZM122.71 36.4134C123.01 36.4134 123.245 36.4873 123.414 36.6359C123.584 36.7838 123.67 36.9921 123.67 37.2602C123.67 37.4625 123.599 37.6395 123.46 37.7904C123.32 37.9412 123.141 38.0316 122.922 38.0599H122.917L123.786 39.4407H123.267L122.49 38.107H122.028V39.4407H121.613V36.4141H122.71V36.4134ZM117.365 36.4134V38.2817C117.365 38.5296 117.435 38.7335 117.575 38.8933C117.714 39.0531 117.901 39.133 118.134 39.133C118.367 39.133 118.554 39.0531 118.693 38.8933C118.833 38.7335 118.903 38.5296 118.903 38.2817V36.4134H119.318V38.3497C119.318 38.558 119.268 38.7522 119.169 38.9329C119.07 39.1136 118.929 39.2562 118.746 39.3608C118.563 39.4645 118.36 39.5168 118.135 39.5168C117.789 39.5168 117.505 39.4048 117.283 39.1815C117.061 38.9575 116.951 38.6805 116.951 38.3497V36.4134H117.366H117.365ZM112.097 37.927C112.097 38.269 112.205 38.5558 112.421 38.7865C112.637 39.0173 112.914 39.133 113.25 39.133C113.587 39.133 113.856 39.0187 114.075 38.791C114.294 38.5632 114.403 38.275 114.403 37.9278C114.403 37.5805 114.296 37.296 114.08 37.066C113.864 36.8368 113.586 36.7218 113.246 36.7218C112.905 36.7218 112.643 36.836 112.425 37.0638C112.206 37.2915 112.096 37.5798 112.096 37.927H112.097ZM113.25 36.3365C113.705 36.3365 114.085 36.4858 114.388 36.7852C114.692 37.0847 114.844 37.4648 114.844 37.927C114.844 38.2205 114.776 38.4893 114.641 38.7327C114.506 38.9762 114.315 39.1681 114.069 39.3077C113.823 39.4474 113.55 39.5176 113.25 39.5176C112.951 39.5176 112.683 39.4481 112.438 39.31C112.194 39.1718 112.002 38.9807 111.864 38.7372C111.726 38.4938 111.656 38.2235 111.656 37.927C111.656 37.4767 111.805 37.0989 112.103 36.7942C112.401 36.4895 112.784 36.3365 113.25 36.3365ZM107.732 36.4134L108.566 37.7433L109.425 36.4134H109.931L108.773 38.1488V39.4399H108.358V38.1488L107.201 36.4134H107.732ZM101.78 36.3365C102.177 36.3365 102.471 36.4522 102.661 36.6829L102.325 36.9861C102.272 36.9062 102.199 36.842 102.104 36.7935C102.009 36.7449 101.9 36.721 101.776 36.721C101.597 36.721 101.454 36.7643 101.346 36.8517C101.238 36.9383 101.183 37.0503 101.183 37.187C101.183 37.4147 101.336 37.5746 101.642 37.6657L102.026 37.7896C102.242 37.8583 102.407 37.9531 102.52 38.0764C102.634 38.1988 102.691 38.3668 102.691 38.5812C102.691 38.8604 102.59 39.0867 102.39 39.2584C102.19 39.4309 101.936 39.5168 101.628 39.5168C101.187 39.5168 100.862 39.3772 100.651 39.0979L100.993 38.8074C101.059 38.9097 101.15 38.9896 101.265 39.0471C101.38 39.1039 101.506 39.1322 101.641 39.1322C101.811 39.1322 101.955 39.0837 102.072 38.9866C102.19 38.8896 102.25 38.7701 102.25 38.6275C102.25 38.5222 102.214 38.4333 102.142 38.3624C102.07 38.2914 101.94 38.2272 101.753 38.1697L101.481 38.0801C101.207 37.989 101.016 37.8725 100.906 37.7314C100.797 37.5902 100.742 37.4088 100.742 37.1862C100.742 36.9495 100.839 36.7487 101.032 36.5836C101.225 36.4186 101.474 36.3357 101.779 36.3357L101.78 36.3365ZM97.8122 36.3365C98.21 36.3365 98.5035 36.4522 98.6937 36.6829L98.3571 36.9861C98.3051 36.9062 98.2318 36.842 98.1368 36.7935C98.0417 36.7449 97.9322 36.721 97.8085 36.721C97.6296 36.721 97.487 36.7643 97.3783 36.8517C97.2704 36.9383 97.216 37.0503 97.216 37.187C97.216 37.4147 97.3685 37.5746 97.6741 37.6657L98.0583 37.7896C98.2741 37.8583 98.4394 37.9531 98.5526 38.0764C98.6666 38.1988 98.7232 38.3668 98.7232 38.5812C98.7232 38.8604 98.6228 39.0867 98.4228 39.2584C98.2228 39.4309 97.9685 39.5168 97.6606 39.5168C97.2198 39.5168 96.8945 39.3772 96.684 39.0979L97.0251 38.8074C97.0915 38.9097 97.1821 38.9896 97.2975 39.0471C97.413 39.1039 97.5383 39.1322 97.6734 39.1322C97.8432 39.1322 97.9873 39.0837 98.1051 38.9866C98.2228 38.8896 98.2824 38.7701 98.2824 38.6275C98.2824 38.5222 98.2462 38.4333 98.1745 38.3624C98.1028 38.2914 97.973 38.2272 97.7858 38.1697L97.5134 38.0801C97.2394 37.989 97.0485 37.8725 96.9391 37.7314C96.8296 37.5902 96.7745 37.4088 96.7745 37.1862C96.7745 36.9495 96.8711 36.7487 97.0643 36.5836C97.2575 36.4186 97.5066 36.3357 97.8115 36.3357L97.8122 36.3365ZM94.7044 36.4134V36.7979H93.1452V37.7H94.5965V38.0846H93.1452V39.0553H94.7821V39.4399H92.7301V36.4134H94.7044ZM89.5272 36.3365C89.7431 36.3365 89.9453 36.376 90.134 36.4559C90.3227 36.5358 90.4774 36.6523 90.5981 36.8062L90.2525 37.0668C90.0653 36.836 89.8193 36.7203 89.5136 36.7203C89.1823 36.7203 88.9099 36.8375 88.6948 37.0705C88.4804 37.3042 88.3733 37.5977 88.3733 37.9509C88.3733 38.3041 88.4789 38.5752 88.691 38.7977C88.9023 39.0202 89.177 39.1315 89.5136 39.1315C89.8502 39.1315 90.1174 38.9963 90.3128 38.7253L90.663 38.9859C90.5423 39.1457 90.3808 39.2741 90.1793 39.3705C89.9778 39.4675 89.7529 39.5161 89.5053 39.5161C89.2117 39.5161 88.9453 39.4459 88.7061 39.3047C88.4669 39.1636 88.2782 38.9702 88.1401 38.723C88.002 38.4766 87.9325 38.2175 87.9325 37.9472C87.9325 37.4797 88.0812 37.0944 88.3778 36.7905C88.6744 36.4873 89.0578 36.335 89.5272 36.335V36.3365ZM84.9206 36.3365C85.1364 36.3365 85.3387 36.376 85.5273 36.4559C85.716 36.5358 85.8707 36.6523 85.9915 36.8062L85.6458 37.0668C85.4586 36.836 85.2126 36.7203 84.907 36.7203C84.5757 36.7203 84.3032 36.8375 84.0881 37.0705C83.8738 37.3042 83.7666 37.5977 83.7666 37.9509C83.7666 38.3041 83.8723 38.5752 84.0844 38.7977C84.2957 39.0202 84.5704 39.1315 84.907 39.1315C85.2436 39.1315 85.5107 38.9963 85.7062 38.7253L86.0564 38.9859C85.9356 39.1457 85.7741 39.2741 85.5726 39.3705C85.3711 39.4675 85.1462 39.5161 84.8987 39.5161C84.6051 39.5161 84.3387 39.4459 84.0994 39.3047C83.8602 39.1636 83.6715 38.9702 83.5334 38.723C83.3953 38.4766 83.3259 38.2175 83.3259 37.9472C83.3259 37.4797 83.4746 37.0944 83.7712 36.7905C84.0678 36.4873 84.4511 36.335 84.9206 36.335V36.3365ZM79.4536 38.3332H80.6113L80.0407 36.9436H80.0324L79.4536 38.3332ZM80.2445 36.4134L81.5531 39.4399H81.0693L80.7629 38.6917H79.3071L79.0045 39.4399H78.5208L79.8686 36.4134H80.2445Z" fill="#F3F3F3"/>
</g>
</svg>
