<svg width="201" height="52" viewBox="0 0 201 52" fill="none" xmlns="http://www.w3.org/2000/svg">
<path d="M67.7675 11.5044V39.4399H63.9397V11.5044H67.7675ZM48.4307 36.1259C50.3182 36.1259 51.7801 35.6921 52.8163 34.8236C53.8532 33.9559 54.3709 32.8111 54.3709 31.3908C54.3709 29.8122 53.8457 28.5891 52.7959 27.7214C51.7461 26.8536 50.2639 26.419 48.35 26.419H42.6483V36.1252H48.4292L48.4307 36.1259ZM47.9915 23.105C49.5862 23.105 50.842 22.7436 51.7589 22.02C52.6759 21.2964 53.1347 20.2644 53.1347 18.9225C53.1347 17.6598 52.7363 16.6599 51.9386 15.9236C51.1408 15.1873 50.0911 14.8192 48.7885 14.8192H42.6483V23.105H47.9908H47.9915ZM48.7892 11.5044C51.3673 11.5044 53.414 12.1354 54.9294 13.3981C56.4448 14.6609 57.2018 16.3575 57.2018 18.4879C57.2018 21.513 55.5807 23.565 52.3378 24.6433V24.7224H52.3778C54.2117 24.933 55.6803 25.6895 56.7837 26.991C57.8871 28.2934 58.438 29.8518 58.438 31.6664C58.438 34.0074 57.5278 35.8885 55.7067 37.3088C53.8857 38.729 51.5401 39.4392 48.6692 39.4392H38.8212V11.5044H48.7892ZM15.7759 29.2208H26.4616L21.1984 16.397H21.1184L15.7759 29.2208ZM23.0723 11.5044L35.1534 39.4399H30.6879L27.857 32.5348H14.4204L11.6296 39.4399H7.16406L19.6037 11.5044H23.0723Z" fill="#F38181"/>
<path d="M182.521 20.5041C183.91 20.5041 184.944 20.2517 185.62 19.7477C186.296 19.2436 186.634 18.4506 186.634 17.3686C186.634 15.2784 185.263 14.233 182.521 14.233H178.908V20.5041H182.521ZM183.3 11.9226C185.227 11.9226 186.737 12.399 187.83 13.3526C188.923 14.3062 189.47 15.6443 189.47 17.3686C189.47 18.6701 189.021 19.8074 188.122 20.7789C187.224 21.7504 186.07 22.3284 184.662 22.5114H184.634L190.22 31.3953H186.885L181.883 22.8138H178.909V31.3953H176.241V11.9226H183.301H183.3ZM171.96 11.9226V14.398H161.927V20.2017H171.266V22.6771H161.927V28.9206H172.46V31.3961H159.258V11.9226H171.96ZM143.334 15.498L138.581 31.3953H135.775L130.021 11.9218H132.801L137.137 27.4891H137.193L141.834 11.9218H144.891L149.533 27.4891H149.588L153.924 11.9218H156.704L150.979 31.3953H148.172L143.392 15.498H143.336H143.334ZM111.01 21.6593C111.01 23.86 111.705 25.7022 113.094 27.1875C114.484 28.6727 116.263 29.415 118.431 29.415C120.599 29.415 122.331 28.6817 123.739 27.2143C125.148 25.7477 125.852 23.8951 125.852 21.6586C125.852 19.4221 125.157 17.5926 123.767 16.1163C122.378 14.64 120.59 13.9022 118.403 13.9022C116.216 13.9022 114.531 14.6355 113.122 16.1028C111.714 17.5694 111.01 19.4221 111.01 21.6586V21.6593ZM118.431 11.4275C121.358 11.4275 123.8 12.3901 125.754 14.3151C127.709 16.2402 128.686 18.6881 128.686 21.6586C128.686 23.5471 128.251 25.2751 127.38 26.8432C126.509 28.4106 125.282 29.6442 123.697 30.5426C122.113 31.4409 120.358 31.8904 118.43 31.8904C116.503 31.8904 114.78 31.4461 113.205 30.5567C111.63 29.6674 110.399 28.439 109.509 26.8708C108.62 25.3034 108.175 23.5658 108.175 21.6586C108.175 18.7612 109.134 16.3321 111.051 14.3697C112.969 12.408 115.429 11.4268 118.43 11.4268L118.431 11.4275ZM97.6421 11.9226V28.9206H106.675V31.3961H94.9742V11.9226H97.6421ZM91.3887 11.9226V14.398H81.6886V20.5041H90.7215V22.9796H81.6886V31.3961H79.0208V11.9226H91.3887Z" fill="#F38181"/>
<path d="M189.309 36.3365C189.706 36.3365 190 36.4522 190.19 36.6829L189.854 36.9861C189.802 36.9062 189.728 36.842 189.633 36.7935C189.538 36.7449 189.429 36.721 189.305 36.721C189.126 36.721 188.983 36.7643 188.875 36.8517C188.767 36.9383 188.713 37.0503 188.713 37.187C188.713 37.4147 188.865 37.5746 189.171 37.6657L189.555 37.7896C189.771 37.8583 189.936 37.9531 190.049 38.0764C190.163 38.1988 190.22 38.3668 190.22 38.5812C190.22 38.8604 190.119 39.0867 189.919 39.2584C189.719 39.4309 189.465 39.5168 189.157 39.5168C188.716 39.5168 188.391 39.3772 188.18 39.0979L188.522 38.8074C188.588 38.9097 188.679 38.9896 188.794 39.0471C188.91 39.1039 189.035 39.1322 189.17 39.1322C189.34 39.1322 189.484 39.0837 189.602 38.9866C189.719 38.8896 189.779 38.7701 189.779 38.6275C189.779 38.5222 189.743 38.4333 189.671 38.3624C189.599 38.2914 189.469 38.2272 189.282 38.1697L189.01 38.0801C188.736 37.989 188.545 37.8725 188.436 37.7314C188.326 37.5902 188.271 37.4088 188.271 37.1862C188.271 36.9495 188.368 36.7487 188.561 36.5836C188.754 36.4186 189.003 36.3357 189.308 36.3357L189.309 36.3365ZM183.54 36.4134L184.512 38.7051H184.529L185.493 36.4134H186.111V39.4399H185.696V36.9518H185.688L184.655 39.4399H184.379L183.347 36.9518H183.338V39.4399H182.923V36.4134H183.541H183.54ZM178.043 37.927C178.043 38.269 178.151 38.5558 178.366 38.7865C178.582 39.0173 178.859 39.133 179.196 39.133C179.532 39.133 179.802 39.0187 180.021 38.791C180.24 38.5632 180.349 38.275 180.349 37.9278C180.349 37.5805 180.241 37.296 180.025 37.066C179.809 36.8368 179.532 36.7218 179.191 36.7218C178.851 36.7218 178.589 36.836 178.37 37.0638C178.151 37.2915 178.042 37.5798 178.042 37.927H178.043ZM179.196 36.3365C179.651 36.3365 180.031 36.4858 180.334 36.7852C180.638 37.0847 180.79 37.4648 180.79 37.927C180.79 38.2205 180.722 38.4893 180.587 38.7327C180.452 38.9762 180.261 39.1681 180.015 39.3077C179.769 39.4474 179.495 39.5176 179.196 39.5176C178.896 39.5176 178.628 39.4481 178.384 39.31C178.139 39.1718 177.948 38.9807 177.809 38.7372C177.671 38.4938 177.602 38.2235 177.602 37.927C177.602 37.4767 177.751 37.0989 178.049 36.7942C178.347 36.4895 178.729 36.3365 179.196 36.3365ZM172.883 37.927C172.883 38.269 172.991 38.5558 173.207 38.7865C173.422 39.0173 173.699 39.133 174.036 39.133C174.373 39.133 174.642 39.0187 174.861 38.791C175.08 38.5632 175.189 38.275 175.189 37.9278C175.189 37.5805 175.081 37.296 174.865 37.066C174.65 36.8368 174.372 36.7218 174.031 36.7218C173.691 36.7218 173.429 36.836 173.21 37.0638C172.991 37.2915 172.882 37.5798 172.882 37.927H172.883ZM174.036 36.3365C174.491 36.3365 174.871 36.4858 175.174 36.7852C175.478 37.0847 175.63 37.4648 175.63 37.927C175.63 38.2205 175.562 38.4893 175.427 38.7327C175.292 38.9762 175.101 39.1681 174.855 39.3077C174.609 39.4474 174.336 39.5176 174.036 39.5176C173.736 39.5176 173.468 39.4481 173.224 39.31C172.979 39.1718 172.788 38.9807 172.65 38.7372C172.512 38.4938 172.442 38.2235 172.442 37.927C172.442 37.4767 172.591 37.0989 172.889 36.7942C173.187 36.4895 173.57 36.3365 174.036 36.3365ZM169.239 36.4134V39.0553H170.643V39.4399H168.824V36.4134H169.239ZM165.579 39.0815C165.783 39.0815 165.942 39.0344 166.054 38.9403C166.167 38.8462 166.223 38.7223 166.223 38.5685C166.223 38.3975 166.166 38.2653 166.052 38.1712C165.938 38.0771 165.778 38.0301 165.571 38.0301H164.952V39.0815H165.579ZM165.531 37.6701C165.704 37.6701 165.84 37.6313 165.94 37.5529C166.039 37.4745 166.088 37.3625 166.088 37.2176C166.088 37.081 166.045 36.9727 165.958 36.8928C165.872 36.8129 165.759 36.7733 165.617 36.7733H164.952V37.6709H165.531L165.531 37.6701ZM165.617 36.4134C165.897 36.4134 166.118 36.4821 166.283 36.6187C166.448 36.7554 166.529 36.9391 166.529 37.1706C166.529 37.4984 166.353 37.7209 166.002 37.8374V37.8456H166.007C166.205 37.8688 166.365 37.9502 166.485 38.0913C166.604 38.2324 166.664 38.4012 166.664 38.5976C166.664 38.8515 166.565 39.0553 166.368 39.2092C166.171 39.363 165.917 39.4399 165.606 39.4399H164.539V36.4134H165.619H165.617ZM159.54 36.4134V36.7979H157.981V37.7H159.432V38.0846H157.981V39.0553H159.618V39.4399H157.566V36.4134H159.54ZM155.56 36.4134V36.7979H154.575V39.4399H154.16V36.7979H153.175V36.4134H155.56ZM151.169 36.4134V39.4399H150.754V36.4134H151.169ZM147.525 37.747C147.741 37.747 147.902 37.7082 148.007 37.6298C148.111 37.5514 148.164 37.4282 148.164 37.2602C148.164 36.9353 147.951 36.7726 147.525 36.7726H146.964V37.747H147.525ZM147.646 36.4134C147.945 36.4134 148.18 36.4873 148.35 36.6359C148.52 36.7838 148.605 36.9921 148.605 37.2602C148.605 37.4625 148.535 37.6395 148.395 37.7904C148.256 37.9412 148.076 38.0316 147.857 38.0599H147.853L148.721 39.4407H148.203L147.425 38.107H146.964V39.4407H146.549V36.4141H147.646V36.4134ZM141.639 37.927C141.639 38.269 141.747 38.5558 141.963 38.7865C142.179 39.0173 142.456 39.133 142.792 39.133C143.129 39.133 143.398 39.0187 143.617 38.791C143.836 38.5632 143.946 38.275 143.946 37.9278C143.946 37.5805 143.838 37.296 143.622 37.066C143.406 36.8368 143.128 36.7218 142.788 36.7218C142.448 36.7218 142.186 36.836 141.967 37.0638C141.748 37.2915 141.638 37.5798 141.638 37.927H141.639ZM142.793 36.3365C143.248 36.3365 143.628 36.4858 143.931 36.7852C144.235 37.0847 144.387 37.4648 144.387 37.927C144.387 38.2205 144.319 38.4893 144.184 38.7327C144.049 38.9762 143.858 39.1681 143.612 39.3077C143.366 39.4474 143.093 39.5176 142.793 39.5176C142.494 39.5176 142.226 39.4481 141.981 39.31C141.737 39.1718 141.545 38.9807 141.407 38.7372C141.269 38.4938 141.199 38.2235 141.199 37.927C141.199 37.4767 141.348 37.0989 141.646 36.7942C141.944 36.4895 142.327 36.3365 142.793 36.3365ZM137.162 36.4134L138.061 38.8761H138.07L139.002 36.4134H139.456L138.251 39.4399H137.862L136.682 36.4134H137.162H137.162ZM133.436 38.3332H134.594L134.024 36.9436H134.015L133.436 38.3332ZM134.227 36.4134L135.536 39.4399H135.052L134.746 38.6917H133.29L132.987 39.4399H132.504L133.852 36.4134H134.227ZM131.007 36.4134V36.7979H129.499V37.747H130.903V38.1316H129.499V39.4399H129.084V36.4134H131.006H131.007ZM123.09 37.747C123.305 37.747 123.466 37.7082 123.571 37.6298C123.676 37.5514 123.729 37.4282 123.729 37.2602C123.729 36.9353 123.516 36.7726 123.09 36.7726H122.528V37.747H123.09ZM123.21 36.4134C123.51 36.4134 123.745 36.4873 123.914 36.6359C124.084 36.7838 124.17 36.9921 124.17 37.2602C124.17 37.4625 124.099 37.6395 123.96 37.7904C123.82 37.9412 123.641 38.0316 123.422 38.0599H123.417L124.286 39.4407H123.767L122.99 38.107H122.528V39.4407H122.113V36.4141H123.21V36.4134ZM117.865 36.4134V38.2817C117.865 38.5296 117.935 38.7335 118.075 38.8933C118.214 39.0531 118.401 39.133 118.634 39.133C118.867 39.133 119.054 39.0531 119.193 38.8933C119.333 38.7335 119.403 38.5296 119.403 38.2817V36.4134H119.818V38.3497C119.818 38.558 119.768 38.7522 119.669 38.9329C119.57 39.1136 119.429 39.2562 119.246 39.3608C119.063 39.4645 118.86 39.5168 118.635 39.5168C118.289 39.5168 118.005 39.4048 117.783 39.1815C117.561 38.9575 117.451 38.6805 117.451 38.3497V36.4134H117.866H117.865ZM112.597 37.927C112.597 38.269 112.705 38.5558 112.921 38.7865C113.137 39.0173 113.414 39.133 113.75 39.133C114.087 39.133 114.356 39.0187 114.575 38.791C114.794 38.5632 114.903 38.275 114.903 37.9278C114.903 37.5805 114.796 37.296 114.58 37.066C114.364 36.8368 114.086 36.7218 113.746 36.7218C113.405 36.7218 113.143 36.836 112.925 37.0638C112.706 37.2915 112.596 37.5798 112.596 37.927H112.597ZM113.75 36.3365C114.205 36.3365 114.585 36.4858 114.888 36.7852C115.192 37.0847 115.344 37.4648 115.344 37.927C115.344 38.2205 115.276 38.4893 115.141 38.7327C115.006 38.9762 114.815 39.1681 114.569 39.3077C114.323 39.4474 114.05 39.5176 113.75 39.5176C113.451 39.5176 113.183 39.4481 112.938 39.31C112.694 39.1718 112.502 38.9807 112.364 38.7372C112.226 38.4938 112.156 38.2235 112.156 37.927C112.156 37.4767 112.305 37.0989 112.603 36.7942C112.901 36.4895 113.284 36.3365 113.75 36.3365ZM108.232 36.4134L109.066 37.7433L109.925 36.4134H110.431L109.273 38.1488V39.4399H108.858V38.1488L107.701 36.4134H108.232ZM102.28 36.3365C102.677 36.3365 102.971 36.4522 103.161 36.6829L102.825 36.9861C102.772 36.9062 102.699 36.842 102.604 36.7935C102.509 36.7449 102.4 36.721 102.276 36.721C102.097 36.721 101.954 36.7643 101.846 36.8517C101.738 36.9383 101.683 37.0503 101.683 37.187C101.683 37.4147 101.836 37.5746 102.142 37.6657L102.526 37.7896C102.742 37.8583 102.907 37.9531 103.02 38.0764C103.134 38.1988 103.191 38.3668 103.191 38.5812C103.191 38.8604 103.09 39.0867 102.89 39.2584C102.69 39.4309 102.436 39.5168 102.128 39.5168C101.687 39.5168 101.362 39.3772 101.151 39.0979L101.493 38.8074C101.559 38.9097 101.65 38.9896 101.765 39.0471C101.88 39.1039 102.006 39.1322 102.141 39.1322C102.311 39.1322 102.455 39.0837 102.572 38.9866C102.69 38.8896 102.75 38.7701 102.75 38.6275C102.75 38.5222 102.714 38.4333 102.642 38.3624C102.57 38.2914 102.44 38.2272 102.253 38.1697L101.981 38.0801C101.707 37.989 101.516 37.8725 101.406 37.7314C101.297 37.5902 101.242 37.4088 101.242 37.1862C101.242 36.9495 101.339 36.7487 101.532 36.5836C101.725 36.4186 101.974 36.3357 102.279 36.3357L102.28 36.3365ZM98.3122 36.3365C98.71 36.3365 99.0035 36.4522 99.1937 36.6829L98.8571 36.9861C98.8051 36.9062 98.7318 36.842 98.6368 36.7935C98.5417 36.7449 98.4322 36.721 98.3085 36.721C98.1296 36.721 97.987 36.7643 97.8783 36.8517C97.7704 36.9383 97.716 37.0503 97.716 37.187C97.716 37.4147 97.8685 37.5746 98.1741 37.6657L98.5583 37.7896C98.7741 37.8583 98.9394 37.9531 99.0526 38.0764C99.1666 38.1988 99.2232 38.3668 99.2232 38.5812C99.2232 38.8604 99.1228 39.0867 98.9228 39.2584C98.7228 39.4309 98.4685 39.5168 98.1606 39.5168C97.7198 39.5168 97.3945 39.3772 97.184 39.0979L97.5251 38.8074C97.5915 38.9097 97.6821 38.9896 97.7975 39.0471C97.913 39.1039 98.0383 39.1322 98.1734 39.1322C98.3432 39.1322 98.4873 39.0837 98.6051 38.9866C98.7228 38.8896 98.7824 38.7701 98.7824 38.6275C98.7824 38.5222 98.7462 38.4333 98.6745 38.3624C98.6028 38.2914 98.473 38.2272 98.2858 38.1697L98.0134 38.0801C97.7394 37.989 97.5485 37.8725 97.4391 37.7314C97.3296 37.5902 97.2745 37.4088 97.2745 37.1862C97.2745 36.9495 97.3711 36.7487 97.5643 36.5836C97.7575 36.4186 98.0066 36.3357 98.3115 36.3357L98.3122 36.3365ZM95.2044 36.4134V36.7979H93.6452V37.7H95.0965V38.0846H93.6452V39.0553H95.2821V39.4399H93.2301V36.4134H95.2044ZM90.0272 36.3365C90.2431 36.3365 90.4453 36.376 90.634 36.4559C90.8227 36.5358 90.9774 36.6523 91.0981 36.8062L90.7525 37.0668C90.5653 36.836 90.3193 36.7203 90.0136 36.7203C89.6823 36.7203 89.4099 36.8375 89.1948 37.0705C88.9804 37.3042 88.8733 37.5977 88.8733 37.9509C88.8733 38.3041 88.9789 38.5752 89.191 38.7977C89.4023 39.0202 89.677 39.1315 90.0136 39.1315C90.3502 39.1315 90.6174 38.9963 90.8128 38.7253L91.163 38.9859C91.0423 39.1457 90.8808 39.2741 90.6793 39.3705C90.4778 39.4675 90.2529 39.5161 90.0053 39.5161C89.7117 39.5161 89.4453 39.4459 89.2061 39.3047C88.9669 39.1636 88.7782 38.9702 88.6401 38.723C88.502 38.4766 88.4325 38.2175 88.4325 37.9472C88.4325 37.4797 88.5812 37.0944 88.8778 36.7905C89.1744 36.4873 89.5578 36.335 90.0272 36.335V36.3365ZM85.4206 36.3365C85.6364 36.3365 85.8387 36.376 86.0273 36.4559C86.216 36.5358 86.3707 36.6523 86.4915 36.8062L86.1458 37.0668C85.9586 36.836 85.7126 36.7203 85.407 36.7203C85.0757 36.7203 84.8032 36.8375 84.5881 37.0705C84.3738 37.3042 84.2666 37.5977 84.2666 37.9509C84.2666 38.3041 84.3723 38.5752 84.5844 38.7977C84.7957 39.0202 85.0704 39.1315 85.407 39.1315C85.7436 39.1315 86.0107 38.9963 86.2062 38.7253L86.5564 38.9859C86.4356 39.1457 86.2741 39.2741 86.0726 39.3705C85.8711 39.4675 85.6462 39.5161 85.3987 39.5161C85.1051 39.5161 84.8387 39.4459 84.5994 39.3047C84.3602 39.1636 84.1715 38.9702 84.0334 38.723C83.8953 38.4766 83.8259 38.2175 83.8259 37.9472C83.8259 37.4797 83.9746 37.0944 84.2712 36.7905C84.5678 36.4873 84.9511 36.335 85.4206 36.335V36.3365ZM79.9536 38.3332H81.1113L80.5407 36.9436H80.5324L79.9536 38.3332ZM80.7445 36.4134L82.0531 39.4399H81.5693L81.2629 38.6917H79.8071L79.5045 39.4399H79.0208L80.3686 36.4134H80.7445Z" fill="#F38181"/>
</svg>
